<mxfile host="app.diagrams.net" modified="2021-07-26T07:07:35.258Z" agent="5.0 (Macintosh; Intel Mac OS X 10_15_7) AppleWebKit/537.36 (KHTML, like Gecko) Chrome/91.0.4472.164 Safari/537.36" etag="-A1o-71jdX635LaOhqPk" version="14.9.0" type="github">
  <diagram id="xw4-3M3b43iadvNxbmKp" name="第 1 页">
    <mxGraphModel dx="946" dy="445" grid="1" gridSize="10" guides="1" tooltips="1" connect="1" arrows="1" fold="1" page="1" pageScale="1" pageWidth="827" pageHeight="1169" math="0" shadow="0">
      <root>
        <mxCell id="0" />
        <mxCell id="1" parent="0" />
        <mxCell id="H6T70w77-L9lthxk0D5k-5" style="edgeStyle=orthogonalEdgeStyle;rounded=0;orthogonalLoop=1;jettySize=auto;html=1;" edge="1" parent="1" source="H6T70w77-L9lthxk0D5k-1" target="H6T70w77-L9lthxk0D5k-4">
          <mxGeometry relative="1" as="geometry" />
        </mxCell>
        <mxCell id="H6T70w77-L9lthxk0D5k-1" value="clickhouse" style="rounded=1;whiteSpace=wrap;html=1;fillColor=#e1d5e7;strokeColor=#9673a6;" vertex="1" parent="1">
          <mxGeometry x="130" y="130" width="110" height="50" as="geometry" />
        </mxCell>
        <mxCell id="H6T70w77-L9lthxk0D5k-7" style="edgeStyle=orthogonalEdgeStyle;rounded=0;orthogonalLoop=1;jettySize=auto;html=1;exitX=1;exitY=0.5;exitDx=0;exitDy=0;entryX=0.5;entryY=1;entryDx=0;entryDy=0;" edge="1" parent="1" source="H6T70w77-L9lthxk0D5k-2" target="H6T70w77-L9lthxk0D5k-4">
          <mxGeometry relative="1" as="geometry" />
        </mxCell>
        <mxCell id="H6T70w77-L9lthxk0D5k-2" value="Skywalking" style="rounded=1;whiteSpace=wrap;html=1;fillColor=#dae8fc;strokeColor=#6c8ebf;" vertex="1" parent="1">
          <mxGeometry x="130" y="290" width="110" height="50" as="geometry" />
        </mxCell>
        <mxCell id="H6T70w77-L9lthxk0D5k-6" style="edgeStyle=orthogonalEdgeStyle;rounded=0;orthogonalLoop=1;jettySize=auto;html=1;exitX=1;exitY=0.5;exitDx=0;exitDy=0;entryX=0;entryY=0.5;entryDx=0;entryDy=0;" edge="1" parent="1" source="H6T70w77-L9lthxk0D5k-3" target="H6T70w77-L9lthxk0D5k-4">
          <mxGeometry relative="1" as="geometry" />
        </mxCell>
        <mxCell id="H6T70w77-L9lthxk0D5k-3" value="logtail" style="rounded=1;whiteSpace=wrap;html=1;fillColor=#dae8fc;strokeColor=#6c8ebf;" vertex="1" parent="1">
          <mxGeometry x="130" y="210" width="110" height="50" as="geometry" />
        </mxCell>
        <mxCell id="H6T70w77-L9lthxk0D5k-13" style="edgeStyle=orthogonalEdgeStyle;rounded=0;orthogonalLoop=1;jettySize=auto;html=1;exitX=1;exitY=0.5;exitDx=0;exitDy=0;entryX=0;entryY=0.5;entryDx=0;entryDy=0;" edge="1" parent="1" source="H6T70w77-L9lthxk0D5k-4" target="H6T70w77-L9lthxk0D5k-8">
          <mxGeometry relative="1" as="geometry" />
        </mxCell>
        <mxCell id="H6T70w77-L9lthxk0D5k-4" value="topic" style="ellipse;whiteSpace=wrap;html=1;fillColor=#ffe6cc;strokeColor=#d79b00;" vertex="1" parent="1">
          <mxGeometry x="300" y="195" width="120" height="80" as="geometry" />
        </mxCell>
        <mxCell id="H6T70w77-L9lthxk0D5k-8" value="" style="rounded=0;whiteSpace=wrap;html=1;dashed=1;" vertex="1" parent="1">
          <mxGeometry x="455" y="182.5" width="245" height="105" as="geometry" />
        </mxCell>
        <mxCell id="H6T70w77-L9lthxk0D5k-9" value="数据加工" style="text;html=1;strokeColor=none;fillColor=none;align=center;verticalAlign=middle;whiteSpace=wrap;rounded=0;" vertex="1" parent="1">
          <mxGeometry x="510" y="162.5" width="60" height="20" as="geometry" />
        </mxCell>
        <mxCell id="H6T70w77-L9lthxk0D5k-15" style="edgeStyle=orthogonalEdgeStyle;rounded=0;orthogonalLoop=1;jettySize=auto;html=1;exitX=1;exitY=0.25;exitDx=0;exitDy=0;entryX=0;entryY=0.5;entryDx=0;entryDy=0;" edge="1" parent="1" source="H6T70w77-L9lthxk0D5k-10" target="H6T70w77-L9lthxk0D5k-12">
          <mxGeometry relative="1" as="geometry" />
        </mxCell>
        <mxCell id="H6T70w77-L9lthxk0D5k-10" value="接收创建msg" style="rounded=1;whiteSpace=wrap;html=1;fillColor=#d5e8d4;strokeColor=#82b366;" vertex="1" parent="1">
          <mxGeometry x="480" y="195" width="110" height="30" as="geometry" />
        </mxCell>
        <mxCell id="H6T70w77-L9lthxk0D5k-17" style="edgeStyle=orthogonalEdgeStyle;rounded=0;orthogonalLoop=1;jettySize=auto;html=1;exitX=1;exitY=0.5;exitDx=0;exitDy=0;entryX=0;entryY=0.5;entryDx=0;entryDy=0;" edge="1" parent="1" source="H6T70w77-L9lthxk0D5k-11" target="H6T70w77-L9lthxk0D5k-12">
          <mxGeometry relative="1" as="geometry" />
        </mxCell>
        <mxCell id="H6T70w77-L9lthxk0D5k-11" value="&lt;span&gt;接收删除msg&lt;/span&gt;" style="rounded=1;whiteSpace=wrap;html=1;fillColor=#f8cecc;strokeColor=#b85450;" vertex="1" parent="1">
          <mxGeometry x="480" y="245" width="110" height="30" as="geometry" />
        </mxCell>
        <mxCell id="H6T70w77-L9lthxk0D5k-22" style="edgeStyle=orthogonalEdgeStyle;rounded=0;orthogonalLoop=1;jettySize=auto;html=1;exitX=1;exitY=0.5;exitDx=0;exitDy=0;entryX=0;entryY=0.5;entryDx=0;entryDy=0;entryPerimeter=0;" edge="1" parent="1" source="H6T70w77-L9lthxk0D5k-12" target="H6T70w77-L9lthxk0D5k-19">
          <mxGeometry relative="1" as="geometry" />
        </mxCell>
        <mxCell id="H6T70w77-L9lthxk0D5k-23" style="edgeStyle=orthogonalEdgeStyle;rounded=0;orthogonalLoop=1;jettySize=auto;html=1;exitX=1;exitY=0.5;exitDx=0;exitDy=0;entryX=0;entryY=0.5;entryDx=0;entryDy=0;entryPerimeter=0;" edge="1" parent="1" source="H6T70w77-L9lthxk0D5k-12" target="H6T70w77-L9lthxk0D5k-20">
          <mxGeometry relative="1" as="geometry" />
        </mxCell>
        <mxCell id="H6T70w77-L9lthxk0D5k-24" style="edgeStyle=orthogonalEdgeStyle;rounded=0;orthogonalLoop=1;jettySize=auto;html=1;exitX=1;exitY=0.5;exitDx=0;exitDy=0;entryX=0;entryY=0;entryDx=0;entryDy=35.25;entryPerimeter=0;" edge="1" parent="1" source="H6T70w77-L9lthxk0D5k-12" target="H6T70w77-L9lthxk0D5k-21">
          <mxGeometry relative="1" as="geometry" />
        </mxCell>
        <mxCell id="H6T70w77-L9lthxk0D5k-12" value="sink&lt;br&gt;统一管理" style="rounded=1;whiteSpace=wrap;html=1;fillColor=#fff2cc;strokeColor=#d6b656;" vertex="1" parent="1">
          <mxGeometry x="630" y="205" width="65" height="60" as="geometry" />
        </mxCell>
        <mxCell id="H6T70w77-L9lthxk0D5k-19" value="Clickhouse&lt;br&gt;table" style="shape=cylinder3;whiteSpace=wrap;html=1;boundedLbl=1;backgroundOutline=1;size=15;fillColor=#e1d5e7;strokeColor=#9673a6;" vertex="1" parent="1">
          <mxGeometry x="750" y="130" width="90" height="57" as="geometry" />
        </mxCell>
        <mxCell id="H6T70w77-L9lthxk0D5k-20" value="ES" style="shape=cylinder3;whiteSpace=wrap;html=1;boundedLbl=1;backgroundOutline=1;size=15;fillColor=#dae8fc;strokeColor=#6c8ebf;" vertex="1" parent="1">
          <mxGeometry x="750" y="206.5" width="90" height="57" as="geometry" />
        </mxCell>
        <mxCell id="H6T70w77-L9lthxk0D5k-21" value="ES" style="shape=cylinder3;whiteSpace=wrap;html=1;boundedLbl=1;backgroundOutline=1;size=15;fillColor=#dae8fc;strokeColor=#6c8ebf;" vertex="1" parent="1">
          <mxGeometry x="750" y="283" width="90" height="57" as="geometry" />
        </mxCell>
      </root>
    </mxGraphModel>
  </diagram>
</mxfile>
